<svg xmlns="http://www.w3.org/2000/svg" width="40.84" height="40.84" viewBox="0 0 40.84 40.84">
  <g id="i" transform="translate(-2241 -819)">
    <g id="Shape_28_copy_3" data-name="Shape 28 copy 3" transform="translate(2241 819)" fill="rgba(91,78,50,0)" stroke="#2c87ce" stroke-linejoin="round" stroke-width="2">
      <circle cx="20.42" cy="20.42" r="20.42" stroke="none"/>
      <circle cx="20.42" cy="20.42" r="19.42" fill="none"/>
    </g>
    <path id="Shape_27_copy" data-name="Shape 27 copy" d="M2269.041,830.905h-15.023a1.018,1.018,0,0,0-1.018,1.018v15.023a1.018,1.018,0,0,0,1.018,1.018h15.023a1.018,1.018,0,0,0,1.018-1.018V831.923A1.018,1.018,0,0,0,2269.041,830.905Zm-9.689,6.554a2.9,2.9,0,1,1-.729,1.918A2.9,2.9,0,0,1,2259.352,837.459Zm8.911,8.709H2254.8v-8.709h2.445a4.7,4.7,0,1,0,8.576,0h2.446Zm0-11.577a.819.819,0,0,1-.82.819h-1.071a.819.819,0,0,1-.82-.819V833.52a.819.819,0,0,1,.82-.819h1.071a.819.819,0,0,1,.82.819Z" fill="#2c87ce"/>
  </g>
</svg>
