<svg xmlns="http://www.w3.org/2000/svg" width="40.84" height="40.84" viewBox="0 0 40.84 40.84">
  <g id="y" transform="translate(-2187 -820)">
    <g id="Shape_28_copy_2" data-name="Shape 28 copy 2" transform="translate(2187 820)" fill="rgba(215,36,36,0)" stroke="#2c87ce" stroke-linejoin="round" stroke-width="2">
      <circle cx="20.42" cy="20.42" r="20.42" stroke="none"/>
      <circle cx="20.42" cy="20.42" r="19.42" fill="none"/>
    </g>
    <path id="Shape_108" data-name="Shape 108" d="M2212.736,849.875h-11.253a2.915,2.915,0,0,1-2.768-3.043v-3.994a2.915,2.915,0,0,1,2.768-3.043H2213.1a2.915,2.915,0,0,1,2.767,3.043v3.994a2.915,2.915,0,0,1-2.767,3.043Zm-1.273-6.147a1.375,1.375,0,0,0-.414,1.033v2.191a1.552,1.552,0,0,0,.376,1.105,1.345,1.345,0,0,0,1.031.4,1.451,1.451,0,0,0,1.093-.377,1.556,1.556,0,0,0,.368-1.13V846.7h-1v.222a1.052,1.052,0,0,1-.1.557.4.4,0,0,1-.339.125.36.36,0,0,1-.329-.148,1.049,1.049,0,0,1-.1-.535V846h1.864v-1.243a1.467,1.467,0,0,0-.359-1.063,1.373,1.373,0,0,0-1.029-.368A1.468,1.468,0,0,0,2211.462,843.728Zm-7.243,3.8a1.055,1.055,0,0,0,.171.653.61.61,0,0,0,.509.217,1.175,1.175,0,0,0,.567-.155,2.1,2.1,0,0,0,.562-.451v.534H2207v-4.874h-.975v3.7a1.329,1.329,0,0,1-.3.262.561.561,0,0,1-.272.1.239.239,0,0,1-.2-.078.414.414,0,0,1-.06-.25v-3.74h-.975Zm4.917.756a1.168,1.168,0,0,0,.51.106.813.813,0,0,0,.663-.275,1.218,1.218,0,0,0,.229-.795v-2.7a1.452,1.452,0,0,0-.245-.911.84.84,0,0,0-.706-.311.958.958,0,0,0-.451.116,1.514,1.514,0,0,0-.417.338v-2.128h-.985v6.607h.985v-.373A1.25,1.25,0,0,0,2209.135,848.281Zm-8.715-5.6h1.137v5.645h1.1v-5.645h1.136v-.962h-3.37Zm8.529,4.892a.824.824,0,0,1-.23-.174v-3.037a.721.721,0,0,1,.2-.149.472.472,0,0,1,.206-.047.375.375,0,0,1,.3.127.584.584,0,0,1,.1.374v2.518a.546.546,0,0,1-.084.336.318.318,0,0,1-.264.1A.581.581,0,0,1,2208.95,847.571Zm3.1-2.326v-.492a.713.713,0,0,1,.1-.437.389.389,0,0,1,.333-.135.377.377,0,0,1,.325.135.724.724,0,0,1,.1.437v.492Zm-5.861-6.71a1.425,1.425,0,0,1-.431-1.089v-2.784a1.225,1.225,0,0,1,.443-.994,1.8,1.8,0,0,1,1.191-.37,1.62,1.62,0,0,1,1.117.389,1.293,1.293,0,0,1,.434,1.006v2.774a1.4,1.4,0,0,1-.425,1.08,1.672,1.672,0,0,1-1.176.392A1.62,1.62,0,0,1,2206.192,838.535Zm.822-4.2a.366.366,0,0,0-.124.285v2.925a.472.472,0,0,0,.117.341.436.436,0,0,0,.335.122.5.5,0,0,0,.354-.122.445.445,0,0,0,.132-.34v-2.925a.353.353,0,0,0-.134-.285.545.545,0,0,0-.352-.107A.488.488,0,0,0,2207.013,834.337Zm3.013,4.3a1.13,1.13,0,0,1-.193-.717v-4.489h1.1v4.117a.439.439,0,0,0,.071.275.263.263,0,0,0,.223.086.631.631,0,0,0,.307-.113,1.486,1.486,0,0,0,.337-.288v-4.076h1.1v5.37h-1.1v-.595a2.361,2.361,0,0,1-.632.5,1.376,1.376,0,0,1-.636.171A.692.692,0,0,1,2210.027,838.642Zm-7.027.164v-2.885l-1.47-4.4h1.243l.8,2.91h.078l.764-2.91h1.255l-1.438,4.26v3.02Z" fill="#2c87ce"/>
  </g>
</svg>
